<svg viewBox="0 0 24 24" xmlns="http://www.w3.org/2000/svg" fill="#FF9900"><path d="M6.763 10.036c0 .296.032.535.088.71.064.176.144.368.256.576.04.063.056.127.056.183 0 .08-.048.16-.152.24l-.503.335a.383.383 0 0 1-.208.072c-.08 0-.16-.04-.239-.112a2.47 2.47 0 0 1-.287-.374 6.18 6.18 0 0 1-.248-.47c-.622.734-1.405 1.101-2.347 1.101-.67 0-1.205-.191-1.596-.574-.391-.384-.59-.894-.59-1.533 0-.678.239-1.23.726-1.644.487-.415 1.133-.623 1.955-.623.272 0 .551.024.846.064.296.04.6.104.918.176v-.583c0-.607-.127-1.03-.375-1.277-.255-.248-.686-.367-1.3-.367-.28 0-.568.031-.863.103a6.395 6.395 0 0 0-.862.287 2.086 2.086 0 0 1-.263.095c-.08 0-.12-.055-.12-.175v-.4c0-.088.008-.152.032-.184.024-.04.072-.08.152-.12.28-.143.614-.263 1.005-.36A4.84 4.84 0 0 1 4.17 5.56c.79 0 1.365.18 1.74.543.367.36.554.91.554 1.644v2.168h.3zm-3.24 1.214c.264 0 .535-.048.822-.144.287-.096.543-.271.75-.527.128-.152.224-.32.272-.512.047-.191.08-.423.08-.694v-.335a6.66 6.66 0 0 0-.735-.136 6.02 6.02 0 0 0-.75-.048c-.535 0-.926.104-1.19.32-.263.215-.39.518-.39.917 0 .375.095.655.295.846.191.2.47.296.846.296zm6.404.96c-.103 0-.175-.016-.224-.08-.048-.055-.088-.16-.12-.296L7.586 5.574a1.46 1.46 0 0 1-.048-.296c0-.12.056-.184.168-.184h.782c.103 0 .176.016.224.08.047.055.08.16.112.296l1.341 5.295 1.245-5.295c.04-.144.072-.24.12-.296a.38.38 0 0 1 .231-.08h.638c.104 0 .176.016.224.08.048.055.088.16.12.296l1.261 5.36 1.381-5.36c.04-.144.072-.24.12-.296.047-.063.12-.08.223-.08h.743c.112 0 .168.055.168.184 0 .04-.008.08-.016.127a1.2 1.2 0 0 1-.04.175l-1.94 6.262c-.04.144-.072.24-.12.296a.35.35 0 0 1-.224.08h-.686c-.104 0-.176-.016-.224-.08-.048-.063-.088-.16-.12-.303l-1.238-5.148-1.229 5.14c-.04.144-.072.24-.12.303-.048.064-.128.08-.232.08zm10.256.215c-.415 0-.83-.048-1.229-.143-.399-.096-.71-.2-.918-.32-.128-.071-.216-.151-.248-.223a.56.56 0 0 1-.048-.224v-.415c0-.12.048-.175.136-.175a.35.35 0 0 1 .12.016c.04.016.096.04.16.072.535.248 1.117.375 1.74.375.455 0 .805-.08 1.062-.248.255-.168.39-.415.39-.734 0-.216-.072-.392-.207-.543a1.99 1.99 0 0 0-.726-.415l-1.042-.328c-.527-.168-.918-.415-1.165-.742a1.77 1.77 0 0 1-.375-1.093c0-.32.072-.6.207-.846.136-.247.32-.463.551-.63a2.4 2.4 0 0 1 .79-.391c.303-.088.63-.128.974-.128.176 0 .36.008.535.032.183.024.351.056.519.096.16.04.312.08.455.127.144.048.256.096.336.152a.69.69 0 0 1 .24.2.44.44 0 0 1 .071.263v.383c0 .12-.048.184-.136.184a.63.63 0 0 1-.232-.08 3.81 3.81 0 0 0-1.548-.303c-.415 0-.742.064-.974.2-.232.136-.35.36-.35.67 0 .216.08.4.232.551.16.152.455.304.87.44l1.015.32c.52.168.895.4 1.133.694.24.296.36.63.36 1.006 0 .327-.064.623-.2.886a2.03 2.03 0 0 1-.567.654 2.6 2.6 0 0 1-.862.4 3.7 3.7 0 0 1-1.102.152zM21.698 16.207c-2.626 1.94-6.442 2.97-9.722 2.97-4.598 0-8.74-1.7-11.87-4.526-.247-.224-.024-.527.272-.351 3.384 1.963 7.559 3.153 11.878 3.153 2.914 0 6.114-.607 9.06-1.852.439-.2.814.287.382.606zM22.792 14.96c-.336-.43-2.22-.207-3.074-.103-.255.032-.295-.192-.063-.36 1.5-1.053 3.967-.75 4.254-.399.287.36-.08 2.826-1.485 4.007-.216.184-.423.088-.327-.152.32-.79 1.03-2.57.695-2.993z"/></svg>
