<?xml version="1.0" encoding="UTF-8"?>
<svg id="Capa_1" data-name="Capa 1" xmlns="http://www.w3.org/2000/svg" xmlns:xlink="http://www.w3.org/1999/xlink" viewBox="0 0 25 25">
  <defs>
    <style>
      .cls-1 {
        fill: #e3e3e3;
      }

      .cls-2 {
        fill: url(#Degradado_sin_nombre_31-2);
      }

      .cls-3 {
        fill: url(#Degradado_sin_nombre_31-3);
      }

      .cls-4 {
        fill: #fff;
      }

      .cls-5 {
        fill: url(#Degradado_sin_nombre_33);
      }

      .cls-6 {
        fill: url(#Degradado_sin_nombre_31);
      }
    </style>
    <linearGradient id="Degradado_sin_nombre_31" data-name="Degradado sin nombre 31" x1="3.04" y1="9.69" x2="12.52" y2="9.69" gradientUnits="userSpaceOnUse">
      <stop offset="0" stop-color="#fff"/>
      <stop offset="1" stop-color="#000"/>
    </linearGradient>
    <linearGradient id="Degradado_sin_nombre_33" data-name="Degradado sin nombre 33" x1="25.37" y1="10.5" x2="6.74" y2="8.64" gradientUnits="userSpaceOnUse">
      <stop offset=".08" stop-color="#fff"/>
      <stop offset="1" stop-color="#000"/>
    </linearGradient>
    <linearGradient id="Degradado_sin_nombre_31-2" data-name="Degradado sin nombre 31" x1="1.53" y1="17.64" x2="8.91" y2="17.64" xlink:href="#Degradado_sin_nombre_31"/>
    <linearGradient id="Degradado_sin_nombre_31-3" data-name="Degradado sin nombre 31" x1="12.56" y1="17.65" x2="19.8" y2="17.65" xlink:href="#Degradado_sin_nombre_31"/>
  </defs>
  <polygon class="cls-6" points="12.52 1.33 10.02 13.95 3.04 18.05 3.04 6.92 12.52 1.33"/>
  <polygon class="cls-5" points="21.96 18.05 15.01 13.97 12.52 1.33 21.95 6.91 21.96 18.05"/>
  <polygon class="cls-2" points="3.04 18.05 10.02 13.95 8.57 21.32 3.04 18.05"/>
  <polygon class="cls-3" points="21.96 18.05 16.46 21.32 15.01 13.97 21.96 18.05"/>
  <polygon class="cls-1" points="15.01 13.97 12.52 12.5 12.52 1.33 15.01 13.97"/>
  <polygon class="cls-4" points="12.52 1.33 12.52 12.5 10.02 13.95 12.52 1.33"/>
  <polygon class="cls-4" points="12.52 12.5 12.52 23.67 8.57 21.32 10.02 13.95 12.52 12.5"/>
  <polygon class="cls-1" points="16.46 21.32 12.52 23.67 12.52 12.5 15.01 13.97 16.46 21.32"/>
</svg>