<?xml version="1.0" encoding="UTF-8"?>
<svg xmlns="http://www.w3.org/2000/svg" viewBox="0 0 1024 1024">
  <path fill="#ffffff" d="M923.87,632.56c-9.18,63.94-25.58,103.61-29.31,112.4-4.39,10.43-9.25,20.66-14.56,30.62-32.33,60.92-77.32,117.06-148.07,133.84-24.53,5.84-49.71,1.25-70.89-12.39-17.97-11.61-32.13-28.33-43.22-46.63-3.74-6.23-7.34-12.79-13.12-17.12-9.71-7.35-21.12-3.15-28.85,4.79-8.98,9.12-16.26,19.94-25.25,29.18-9.05,9.31-18.69,18.1-28.99,26.03-17.05,13.12-36.2,24.53-56.99,30.49-11.8,3.48-21.05,3.8-23.08,3.87-23.74,1.44-42.69-5.11-53.51-9.97-4-1.84-17.64-8.66-31.74-23.08-34.62-35.48-46.49-81.78-47.41-129.91-.2-10.62-1.25-23.08-10.23-28.92-7.02-4.59-16.39-3.15-24.2,0-13.9,5.51-26.3,10.75-41.18,13.12-21.58,3.41-43.94,1.38-63.81-7.93-43.54-20.26-58.1-65.77-66.56-93.91-31.94-105.71,17.51-208.21,43.67-262.51,34.69-71.81,77.12-118.83,98.37-142.04,25.64-28,54.17-59.28,99.22-87.48,115.87-72.66,269.19-79.74,389.14-12.46,121.97,68.4,183.22,204.93,194.04,339.76,4,49.9,3.67,100.6-3.48,150.24Z"/>
  <path fill="#000000" d="M557.48,507.11c-29.79,6.17-60.85-14.22-80.44-48.97,2.41.54,4.96.8,7.51.8,24.35,0,44.08-23.75,44.08-53.06s-19.72-53-44.08-53c-9.93,0-19.05,3.89-26.43,10.6,4.63-38.31,24.75-68.23,53.87-74.33,40.99-8.59,84.46,33.27,97.01,93.45,12.54,60.18-10.53,115.92-51.52,124.51Z"/>
  <path fill="#000000" d="M747.95,463.01c-29.79,6.17-60.85-14.22-80.44-48.97,2.41.54,4.96.8,7.51.8,24.35,0,44.08-23.75,44.08-53.06s-19.72-53-44.08-53c-9.93,0-19.05,3.89-26.43,10.6,4.63-38.31,24.75-68.23,53.87-74.33,40.99-8.59,84.46,33.27,97.01,93.45,12.54,60.18-10.53,115.92-51.52,124.51Z"/>
</svg>
